<?xml version="1.0" encoding="utf-8"?>
<!-- Generator: Adobe Illustrator 22.0.1, SVG Export Plug-In . SVG Version: 6.00 Build 0)  -->
<svg version="1.1" id="Layer_1" xmlns="http://www.w3.org/2000/svg" xmlns:xlink="http://www.w3.org/1999/xlink" x="0px" y="0px"
	 viewBox="0 0 847.2 66.1" style="enable-background:new 0 0 847.2 66.1;" xml:space="preserve">
<style type="text/css">
	.st0{fill:#002949;}
	.st1{fill:#FFFFFF;}
	.st2{fill:#FF0302;}
</style>
<title>Raymond James</title>
<path class="st0" d="M26.8,31.3c9.1,0,13.7-3.5,13.7-12.8C40.5,9.9,37,5.3,28,5.3c-1,0-4.2-0.1-4.5,1s-0.3,7.4-0.3,8.8v16.1
	L26.8,31.3z M94.2,39.5l-8.3-21.7L77,39.5H94.2z M171.3,4.8c-3.6,0.5-5,3.1-6.8,6.3l-16,26.9v10.1c0,8.1-0.2,12.2,9.2,11.9v3.3H92
	V60c2.8-0.4,7.8-0.2,7.8-4.2c0-1.5-1.2-4.8-1.8-6.2l-2-5.4H75.2L74,47c-0.9,2.4-2.3,5.4-2.3,7.9c0,4.6,4.3,4.9,7.8,5.2v3.4H48
	l-13.4-19c-3.1-4.3-7.2-9.1-9.8-8.9c-0.5,0-1,0.1-1.5,0.1v12.4c0,7.7-0.1,12.2,9,11.9v3.3H0v-3.4c9,0.3,8.9-4.1,8.9-11.9V16.3
	C8.9,8.6,9.1,4.1,0,4.4V1c5.4,0.1,10.7,0.3,16,0.4C21.1,1.3,26.1,1.1,31.3,1c4.5,0.2,11.4,0.5,15.6,2.3c6.1,2.5,9.3,7.5,9.3,14.1
	c0,8.4-7.1,13.7-14.8,14.9l12.8,16.1c1.9,2.8,3.9,5.5,6.1,8c0.8,0.8,2.1,1.9,3.7,0c2.7-3.2,4.3-7.9,5.8-11.4L88.6,0h4.5l19.4,48.5
	c1,2.5,2.9,7.2,4.8,9.1c1.8,1.3,4,2,6.2,2.2h1.9c8.9,0,8.6-3.9,8.7-11.9v-8.2l-16.3-29c-2.5-4.2-3-5.3-7.9-6.4V1
	c4.7,0.1,9.5,0.3,14.2,0.4c5.4-0.1,10.7-0.3,16.1-0.4v3.3c-2.5,0.2-7.1,0.5-7.1,4.1c0,1.9,2.4,6.1,3.4,7.8l9.4,17.1l9.1-15.2
	c1.2-2.3,3.6-6.6,3.6-9.1c0-4.1-3.6-4.7-6.9-4.7V1h40.6l18.5,44l17-44c3.6,0.1,7.2,0.3,10.7,0.4c3.8-0.1,7.5-0.3,11.9-0.4v3.3
	c-9.1-0.3-8.8,4.3-8.9,12.1V46c-0.1,3.1,0.1,6.1,0.7,9.1c1,4,4.5,4.3,8.1,4.9v3.4h-31.9V60c3.6-0.6,7.2-1,8.1-4.9
	c0.5-3,0.8-6.1,0.7-9.1V16.3H227l-18.9,47h-4.5L184,15.6h-0.2v28.9c0,3,0,9.1,1.4,11.7c1.5,2.8,4.7,3.5,7.6,3.8v3.3h-22.5v-3.4
	c3.6-0.6,7.2-1,8.1-4.9c0.5-3,0.8-6.1,0.7-9.1V8.6C177.5,5.9,174.4,4.4,171.3,4.8L171.3,4.8z"/>
<path class="st0" d="M251.6,32.3c0-20.2,16.1-32.1,35.1-32.1s35,12.1,35,32.1s-16.2,32.1-35.3,32.1S251.6,52.2,251.6,32.3z
	 M267.9,31.7c0,12.1,3.3,28.4,18.5,28.4c15.5,0,19-14.2,19-27.2c0-12.6-3.3-28.4-19-28.4C271.3,4.4,267.9,19.6,267.9,31.7z"/>
<path class="st0" d="M391.1,4.5c-8.5,0.1-8.4,3.3-8.4,14.9v45.3h-4.6L335.4,16v29.1c0,7.2,0,14.5,9.1,14.9v3.3h-22.2v-3.4
	c7.8-0.8,8.4-4.6,8.4-11.3V10.9c-3-4.2-4.2-5.9-9.4-6.4V1.1c3,0.1,6,0.3,9,0.4c3.6-0.1,7.1-0.3,10.7-0.4L378.2,44V18.9
	c0-7.2,0-14.1-9-14.4V1.1h53.4c9.2,0,17.8,1.8,25,7.9c7.5,6.5,10.7,15.1,10.7,24.8c0,8.7-2.7,16.5-9.2,22.5
	c-6.7,6-15.8,7.5-24.6,7.2c-5-0.1-30.4,0-30.4,0V60c9.1,0.3,8.9-4.1,8.9-11.9V16.3c0-7.5,0.2-11.8-8.9-11.8L391.1,4.5z M415.4,42.6
	c0,2.8,0,9.4,0.9,11.9c1.2,3.3,4.3,4.6,7.6,4.6c14.6,0,16-14.5,16-25.9c0-6.3-0.9-13.9-3.8-19.6c-3.4-6.4-9.9-8.2-16.7-8.2
	c-0.8,0-3.1,0.2-3.8,0.9c-0.3,0.7-0.5,1.5-0.4,2.3v34H415.4L415.4,42.6z"/>
<path class="st0" d="M493,41.2c-0.4,0.1-0.9,0.4-1.2,0.7c-1.5,1.2-2.9,6-2.1,11c1,5.6,6.2,9.5,11.9,8.8c9.5-1.3,7.8-8.4,7.8-28.5
	V16.5c0-7.8-0.3-12.3-9.5-12.1V1c4.7,0.1,10.1,0.3,14.9,0.4c5.9-0.1,12.6-0.3,18.6-0.4v3.3c-7.8,0.2-8.9,1.5-8.9,12.1v22.7
	c0,15.6-4.1,23.8-19,26.4c-10.9,1.9-25.6-0.5-29.7-11.3c-2-5.3-1.2-11.1-1.2-13.5l13.9-2.7l3.8-0.7L493,41.2"/>
<path class="st0" d="M560.3,39.5L552,17.8l-8.9,21.7H560.3z M721.8,43.6h3.7c2.6,8.6,7,16.5,17.4,16.5c5.5,0,10.8-3.6,10.8-9.4
	c0-8.8-9.1-11.2-15.7-14c-8.5-3.7-15.4-8.4-15.4-18.8c0-11.6,8.9-17.8,19.8-17.8c5.1,0,10.4,1.1,14.1,4.6l1.2-3.7h4.1l0.6,17h-4.1
	c-1.7-7.3-7.1-13.6-15.3-13.6c-4.6,0-9.3,2.6-9.3,7.7c0,7.1,7.2,9,12.5,11.5c10.1,4.3,19.6,8.8,19.6,21.4s-10.5,19.4-22,19.4
	c-6,0-12.2-2-16.4-6.4l-1.3,5.4h-94v-3.4c3.6-0.6,7.2-1,8.1-4.9c0.5-3,0.8-6.1,0.7-9.1V16.3h-0.2l-18.8,47h-4.5l-19.8-47.8h-0.2
	v28.9c0,3,0,9.1,1.4,11.7c1.5,2.8,4.7,3.5,7.5,3.8v3.4H558v-3.4c2.8-0.4,7.8-0.2,7.8-4.2c0-1.5-1.2-4.8-1.8-6.2l-2-5.4h-20.8
	l-1.1,2.7c-0.8,2.4-2.3,5.4-2.3,7.9c0,4.6,4.3,4.9,7.8,5.2v3.4h-21V60c3.8-0.7,6.1-3.8,7.9-7.2c1.3-2.6,2.4-5.2,3.4-7.8l18.7-44.9
	h4.5l19.4,48.5c1,2.5,2.9,7.3,4.8,9.1c0.7,0.6,1.4,1.1,2.3,1.4c0.8,0.3,1.6,0.3,2.4,0c1.8-0.6,3.2-2.1,3.6-4c0.5-3,0.8-6.1,0.7-9.1
	V8.5c-1.7-3.3-5.4-3.9-8.8-4.2V0.9c3.4,0.1,6.9,0.3,10.3,0.4c4-0.1,7.8-0.3,11.8-0.4l18.5,44l17-44h75.7l0.8,16.6h-4.1
	c-1.6-9.3-7-12.3-16-12.3c-1.1,0-7.2,0-7.7,1c-0.3,0.5-0.3,4.6-0.3,5.4v17.5c7.6,0,12.5-1.4,12.9-10.1h3.8c-0.1,4.3-0.3,8.7-0.4,13
	c0.1,3.9,0.3,7.8,0.4,11.7h-3.8c-1.8-8.7-4.2-10.1-12.9-10.1v10.9c0,8.9-0.3,14.5,10.9,14.5h4.7c10-0.2,13.8-3.5,16.2-13.8
	C721.5,44.6,721.7,44.1,721.8,43.6z M675.3,16.3c0-6.1,0.1-10.1-4.2-11.4c-1.3-0.3-2.6-0.4-3.9-0.4H663c-1.3,0-2.6,0.1-3.8,0.4
	c-4.3,1.3-4.2,5.4-4.2,11.4v31.8c0,6.1-0.1,10.1,4.2,11.4c1.3,0.3,2.6,0.4,3.9,0.4h4.1c1.3,0,2.6-0.1,3.8-0.4
	c4.3-1.3,4.2-5.4,4.2-11.4L675.3,16.3z"/>
<g>
	<rect x="794.4" y="0.3" class="st1" width="52.8" height="33.1"/>
	<path class="st2" d="M825.5,20.9c0.1-0.2,4.6-4,4.6-4l-0.9-0.4c0,0-0.3-0.1-0.2-0.5c0.1-0.4,0.8-3,0.8-3l-2.5,0.6
		c0,0-0.4,0.1-0.6-0.3c-0.1-0.5-0.3-1.1-0.3-1.1l-2,2.3c0,0-0.4,0.4-0.6,0.3c0,0-0.2-0.1-0.1-0.8c0.1-0.8,0.9-4.7,0.9-4.7L823,9.7
		c0,0-0.4,0.2-0.7-0.3c-0.2-0.5-1.6-3.1-1.6-3.1s-1.4,2.6-1.6,3.1c-0.2,0.5-0.7,0.3-0.7,0.3L817.1,9c0,0,0.7,3.9,0.9,4.7
		c0.1,0.8-0.1,0.8-0.1,0.8c-0.3,0.1-0.6-0.3-0.6-0.3l-2-2.3c0,0-0.2,0.7-0.3,1.1c-0.1,0.5-0.6,0.3-0.6,0.3l-2.5-0.6
		c0,0,0.7,2.6,0.8,3c0.1,0.4-0.2,0.5-0.2,0.5l-0.9,0.4c0,0,4.5,3.8,4.6,4c0.1,0.2,0,0.6,0,0.6l-0.3,1.1l1.8-0.2c0,0,2.4-0.3,2.7-0.3
		c0.3,0,0.3,0.2,0.3,0.2l-0.2,5h0.4h0.4l-0.2-5c0,0,0-0.3,0.3-0.2c0.3,0,2.7,0.3,2.7,0.3l1.8,0.2l-0.3-1.1
		C825.5,21.5,825.3,21.1,825.5,20.9z"/>
	<rect x="794.4" y="0.3" class="st2" width="13.9" height="33.1"/>
	<rect x="833.3" y="0.3" class="st2" width="13.9" height="33.1"/>
</g>
</svg>
